<?xml version="1.0" standalone="no"?>
<!DOCTYPE svg PUBLIC "-//W3C//DTD SVG 20010904//EN"
 "http://www.w3.org/TR/2001/REC-SVG-20010904/DTD/svg10.dtd">
<svg version="1.0" xmlns="http://www.w3.org/2000/svg"
 width="700.000000pt" height="700.000000pt" viewBox="0 0 700.000000 700.000000"
 preserveAspectRatio="xMidYMid meet">
<metadata>
Created by potrace 1.11, written by Peter Selinger 2001-2013
</metadata>
<g transform="translate(0.000000,700.000000) scale(0.100000,-0.100000)"
fill="#000000" stroke="none">
<path d="M5167 6423 c-1 -1 -308 -4 -681 -7 -374 -3 -682 -9 -686 -13 -5 -6
-135 -153 -185 -209 -5 -6 -37 -42 -71 -80 -33 -38 -227 -256 -430 -484 -203
-228 -383 -430 -399 -449 -17 -19 -35 -39 -41 -45 -5 -6 -43 -49 -84 -96 -41
-47 -79 -90 -85 -96 -27 -29 -146 -162 -164 -184 l-20 -25 -1 135 c-1 74 -3
448 -5 830 -2 382 -4 700 -4 705 -1 10 -390 9 -400 0 -2 -3 -3 -307 -2 -677 2
-370 4 -982 4 -1360 1 -379 4 -688 7 -688 3 0 26 23 50 51 25 29 53 61 63 73
10 12 35 39 55 61 20 22 68 76 107 120 38 44 74 85 80 91 5 6 42 46 80 89 39
44 92 104 120 134 27 31 63 72 80 91 25 28 79 89 130 146 19 21 124 139 142
160 10 12 46 52 80 90 34 38 70 78 80 90 17 20 50 57 248 279 50 55 119 134
155 174 36 40 74 83 85 96 68 75 205 229 270 304 17 19 44 49 60 67 26 28 93
102 170 189 20 22 25 23 250 24 703 4 2142 17 2156 20 5 1 5 360 0 394 -1 7
-1208 7 -1214 0z"/>
<path d="M809 6315 c-1 -53 -8 -1051 -13 -2010 -3 -511 -8 -1384 -12 -1940 -3
-555 -6 -1128 -7 -1273 -1 -145 0 -265 2 -268 3 -2 16 8 29 23 13 16 40 46 60
68 20 22 75 83 122 135 47 52 104 115 127 140 23 25 51 56 63 70 18 21 140
156 175 194 9 10 132 147 225 249 19 22 44 49 55 61 127 140 188 208 221 245
21 25 50 57 64 71 14 15 42 47 64 71 21 24 73 82 116 129 42 47 146 162 231
255 84 94 170 188 190 210 65 71 90 99 153 170 33 38 68 76 76 85 8 9 55 61
105 116 49 54 106 117 126 139 88 96 238 263 265 294 16 19 36 41 45 50 9 9
40 43 70 76 114 127 215 239 229 254 14 14 124 137 230 255 19 21 40 44 45 50
22 25 223 247 300 331 45 50 98 109 118 131 l37 41 -53 46 c-28 25 -66 58 -83
74 -17 15 -90 81 -163 147 l-132 118 -32 -34 c-29 -30 -76 -83 -246 -273 -30
-33 -59 -65 -65 -70 -6 -6 -45 -48 -86 -95 -41 -47 -77 -87 -80 -90 -3 -3 -66
-72 -140 -155 -74 -82 -142 -156 -150 -165 -8 -9 -46 -51 -85 -94 -38 -43 -79
-88 -90 -100 -11 -13 -54 -60 -95 -106 -41 -47 -102 -114 -135 -150 -33 -36
-98 -108 -145 -159 -47 -52 -89 -99 -95 -105 -5 -6 -48 -54 -95 -106 -47 -52
-89 -100 -95 -106 -8 -8 -133 -146 -180 -198 -5 -6 -71 -79 -145 -161 -74 -83
-139 -155 -145 -161 -5 -6 -38 -42 -72 -80 -128 -143 -265 -294 -314 -346
l-36 -38 3 413 c1 226 5 954 9 1617 4 663 7 1380 8 1594 l2 389 -287 1 -288 2
-1 -31z"/>
<path d="M5160 4905 c-178 -48 -291 -199 -259 -348 40 -186 228 -293 446 -252
70 13 159 63 207 116 103 115 98 267 -12 378 -43 44 -119 90 -158 97 -15 3
-32 8 -37 11 -18 11 -143 10 -187 -2z"/>
<path d="M5275 3864 c-71 -13 -155 -26 -185 -29 -30 -4 -66 -8 -80 -10 -53 -8
-107 -15 -155 -20 -27 -3 -75 -8 -105 -11 -30 -3 -71 -7 -90 -9 -19 -2 -75 -7
-125 -11 -49 -4 -101 -8 -115 -9 -14 -2 -44 -3 -67 -4 l-43 -1 0 -65 0 -65 48
-1 c190 -4 272 -43 272 -129 0 -45 -44 -220 -93 -370 -19 -58 -63 -193 -96
-300 -34 -107 -70 -220 -81 -250 -51 -148 -127 -407 -136 -460 -3 -19 -9 -53
-13 -75 -23 -130 54 -252 193 -307 120 -47 317 -38 462 20 163 65 328 211 563
496 70 86 71 79 -10 121 -43 22 -47 23 -60 7 -181 -217 -255 -289 -336 -329
-60 -29 -108 -26 -138 7 -14 15 -16 30 -12 72 13 114 27 164 251 858 35 107
91 283 125 390 34 107 69 215 77 240 30 89 83 264 81 265 -1 1 -60 -9 -132
-21z"/>
</g>
</svg>
