<svg xmlns="http://www.w3.org/2000/svg" xmlns:xlink="http://www.w3.org/1999/xlink" height="630"  preserveAspectRatio="xMinYMin meet" version="1.2" style="margin: 10px;">
<title>Assembly X.Y.Z</title>
<desc>Illustration of "Assembly X.Y.Z" generated by RealFUSIO IPC Illustrator</desc>
<script xlink:href="SVGPan.min.js"/>
<g id="viewport">
<g id="tracing">
<defs></defs>
<style type="text/css" > 
<![CDATA[ 
.silhouette {stroke:rgb(126,0,0);stroke-width:0.2;stroke-linecap:round;fill:none;}
.crease {stroke:rgb(0,0,127);stroke-width:0.2;stroke-linecap:round;fill:none;}
.outline {stroke:rgb(0,0,0);stroke-width:0.4;stroke-linecap:round;fill:none;}
.halo-outline {stroke:white;stroke-width:1.4;stroke-linecap:round;fill:none;}
.polygon_mask {stroke:none;fill:white;}
.halo_polygon_mask {stroke:white;stroke-width:1.2;stroke-linecap:round;fill:white;}
.outline_and_mask {stroke:rgb(0,0,0);stroke-width:0.4;stroke-linecap:round;fill:white;}
.environment-outline_and_mask {stroke:rgb(84,84,0);stroke-width:0.4;stroke-linecap:round;fill:white;}
.halo-outline_and_mask {stroke:white;stroke-width:1.4;stroke-linecap:round;fill:white;}
.debug {stroke:rgb(0,128,0)}
.hidden {stroke-width:0.2;stroke-dasharray:5,5}
.environment-outline {stroke:rgb(84,84,0);stroke-width:0.4;stroke-linecap:round;fill:none;}
.environment-silhouette {stroke:rgb(84,84,0);stroke-width:0.2;stroke-linecap:round;fill:none;}
.environment-crease {stroke:rgb(84,84,0);stroke-width:0.2;stroke-linecap:round;fill:none;}
]]>
</style>
<g id="face_hide_hoofs_horns_tail_udder">
<polygon points="167.641,404.505 174.765,410.995 184.925,418.401 190.255,420.002 198.988,422.872 203.045,419.524 208.51,413.214 212.104,406.622 214.778,407.12 219.233,408.092 222.607,400.342 230.427,388.613 241.403,373.932 250.969,365.511 257.659,358.349 268.683,344.765 279.12,337.36 304.785,351.675 304.891,351.934 306.726,357.404 307.887,360.265 311.275,376.8 312.599,379.222 311.094,382.462 307.741,390.676 292.579,416.611 289.819,420.402 283.068,426.662 277.123,433.686 271.242,437.748 266.819,441.089 265.228,442.65 261.829,444.17 255.257,449.513 253.737,454.083 255.295,456.276 264.746,464.634 279.631,471.735 283.673,466.341 286.534,457.768 288.866,452.638 289.713,449.774 292.772,451.047 295.354,445.82 297.898,443.307 302.002,432.456 310.665,419.394 321.039,409.295 329.714,400.995 329.89,400.817 331.656,402.069 335.391,405.917 348.767,415.568 364.45,424.718 365.756,425.47 368.723,435.686 363.653,444.358 360.919,449.431 360.868,449.671 361.942,456.401 365.405,457.48 363.408,461.848 360.052,470.648 349.798,485.419 342.11,495.556 332.655,501.364 325.425,507.098 318.291,509.394 315.644,509.389 311.699,511.889 302.472,514.122 297.491,515.937 293.993,516.292 291.14,518.25 290.509,521.744 298.248,528.788 308.265,536.064 313.983,538.017 322.532,540.72 326.753,537.521 332.248,531.239 335.768,524.94 339.108,525.679 343.476,526.571 346.757,518.739 354.684,507.106 363.164,496.723 373.17,487.903 378.41,482.443 387.171,476.075 399.834,462.94 402.834,464.199 401.877,468.983 398.708,473.742 399.439,475.41 401.182,479.13 405.92,479.328 406.9,479.245 410.276,474.625 413.241,470.546 414.72,471.691 420.948,476.687 418.413,485.185 415.364,490.023 417.95,494.371 424.499,493.584 427.777,488.837 433.431,482.543 444.039,485.262 443.288,490.048 442.333,493.893 439.745,502.82 443.327,506.512 441.348,512.256 442.836,512.222 440.849,520.707 435.181,531.576 426.049,545.701 419.134,551.812 413.827,557.839 406.66,562.313 402.58,565.964 402.256,566.269 396.92,568.44 390.165,573.617 389.003,578.511 390.876,580.989 400.455,589.463 415.483,596.692 419.643,591.406 422.651,582.966 425.09,577.933 425.92,575.283 429.437,576.74 431.983,571.481 434.53,568.969 438.677,558.157 441.602,548.731 444.07,542.28 453.33,530.598 461.954,520.098 469.957,508.113 471.259,506.562 471.615,505.63 472.508,504.294 474.354,498.467 480.362,482.752 486.101,473.043 497.579,460.923 512.493,442.348 521.469,430.665 532.344,413.887 538.72,404.742 544.291,394.077 554.994,373.64 558.895,364.318 567.125,349.504 573.59,336.905 573.706,325.799 573.665,317.314 568.759,307.603 562.95,301.052 562.93,297.685 562.583,295.019 558.198,287.428 555.554,284.807 549.507,280.958 535.955,275.484 518.318,265.797 507.829,257.493 498.605,250.775 493.41,247.736 484.095,241.918 475.297,234.989 466.673,227.836 454.367,217.055 441.627,204.671 432.334,192.763 421.705,182.893 415.382,177.154 413.488,175.681 413.269,175.294 408.607,169.886 399.234,156.076 394.476,145.612 393.521,141.719 394.569,142.743 402.971,147.254 409.565,148.029 422.671,144.117 431.674,139.872 438.339,132.419 436.872,125.212 429.91,118.265 421.354,114.457 418.002,113.135 407.356,110.423 401.304,111.206 398.225,111.67 395.546,109.101 396.026,107.846 399.091,106.388 402.769,105.616 410.154,103.773 412.105,101.737 414.667,98.7615 417.7,95.2904 417.669,92.0542 415.735,88.7872 414.951,85.3722 411.869,82.5897 408.085,79.2542 395.55,69.3344 398.5,85.8724 400.606,88.9006 398.008,88.5506 394.367,87.3611 387.267,82.7043 384.47,81.5812 382.403,80.5927 380.455,79.0305 376.484,76.9065 369.431,73.155 368.676,72.6062 368.207,72.059 364.734,69.6531 364.118,69.592 358.695,64.8947 353.942,59.7355 347.339,53.0897 343.774,48.7812 340.189,45.0627 336.287,39.5637 333.751,37.3538 331.868,35.6241 328.12,30.278 325.894,33.6044 324.551,37.2479 323.583,39.7171 324.377,42.7977 325.361,46.6491 328.043,49.5126 330.189,53.094 331.811,57.8907 334.702,63.0694 339.736,69.874 341.175,72.7348 339.403,72.1789 333.957,71.104 331.118,66.3845 329.649,63.5064 326.196,59.958 325.737,59.0748 321.824,55.6587 316.672,55.5896 314.138,56.2837 310.106,59.7138 305.391,66.7248 303.975,75.3665 302.944,86.2721 306.993,91.0278 306.958,91.1288 306.593,92.6332 304.526,95.3579 302.174,96.1136 298.565,96.5857 295.298,96.7315 291.176,96.0347 288.712,95.7047 286.757,96.045 283.17,97.3538 281.373,98.4596 278.517,101.576 278.791,102.155 277.732,103.002 273.941,106.18 273.407,106.894 273.162,107.788 272.151,109.874 271.721,111.095 271.328,115.011 273.297,118.48 273.905,119.731 273.109,121.971 275.183,128.554 276.474,129.912 280.724,133.939 282.59,135.118 283.678,136.194 285.076,140.116 285.807,143.443 289.624,150.887 300.411,163.247 303.67,171.063 305.558,181.284 303.87,189.31 302.717,200.465 301.821,204.697 299.107,206.872 295.336,209.564 294.391,210.652 294.378,210.672 283.813,222.891 279.313,235.367 274.817,243.492 273.41,256.943 270.489,266.351 270.154,270.85 263.872,278.887 260.777,286.576 257.575,297.095 257.573,297.103 253.162,310.293 250.648,320.119 247.235,327.51 236.628,344.322 231.766,355.553 228.224,365.455 228.002,365.889 218.454,377.606 209.162,383.561 202.12,389.465 195.304,391.912 192.388,391.801 188.547,394.395 179.586,396.868 174.05,399.046 171.479,399.374 168.509,401.227" class="halo-outline_and_mask" />
<polygon points="167.641,404.505 174.765,410.995 184.925,418.401 190.255,420.002 198.988,422.872 203.045,419.524 208.51,413.214 212.104,406.622 214.778,407.12 219.233,408.092 222.607,400.342 230.427,388.613 241.403,373.932 250.969,365.511 257.659,358.349 268.683,344.765 279.12,337.36 304.785,351.675 304.891,351.934 306.726,357.404 307.887,360.265 311.275,376.8 312.599,379.222 311.094,382.462 307.741,390.676 292.579,416.611 289.819,420.402 283.068,426.662 277.123,433.686 271.242,437.748 266.819,441.089 265.228,442.65 261.829,444.17 255.257,449.513 253.737,454.083 255.295,456.276 264.746,464.634 279.631,471.735 283.673,466.341 286.534,457.768 288.866,452.638 289.713,449.774 292.772,451.047 295.354,445.82 297.898,443.307 302.002,432.456 310.665,419.394 321.039,409.295 329.714,400.995 329.89,400.817 331.656,402.069 335.391,405.917 348.767,415.568 364.45,424.718 365.756,425.47 368.723,435.686 363.653,444.358 360.919,449.431 360.868,449.671 361.942,456.401 365.405,457.48 363.408,461.848 360.052,470.648 349.798,485.419 342.11,495.556 332.655,501.364 325.425,507.098 318.291,509.394 315.644,509.389 311.699,511.889 302.472,514.122 297.491,515.937 293.993,516.292 291.14,518.25 290.509,521.744 298.248,528.788 308.265,536.064 313.983,538.017 322.532,540.72 326.753,537.521 332.248,531.239 335.768,524.94 339.108,525.679 343.476,526.571 346.757,518.739 354.684,507.106 363.164,496.723 373.17,487.903 378.41,482.443 387.171,476.075 399.834,462.94 402.834,464.199 401.877,468.983 398.708,473.742 399.439,475.41 401.182,479.13 405.92,479.328 406.9,479.245 410.276,474.625 413.241,470.546 414.72,471.691 420.948,476.687 418.413,485.185 415.364,490.023 417.95,494.371 424.499,493.584 427.777,488.837 433.431,482.543 444.039,485.262 443.288,490.048 442.333,493.893 439.745,502.82 443.327,506.512 441.348,512.256 442.836,512.222 440.849,520.707 435.181,531.576 426.049,545.701 419.134,551.812 413.827,557.839 406.66,562.313 402.58,565.964 402.256,566.269 396.92,568.44 390.165,573.617 389.003,578.511 390.876,580.989 400.455,589.463 415.483,596.692 419.643,591.406 422.651,582.966 425.09,577.933 425.92,575.283 429.437,576.74 431.983,571.481 434.53,568.969 438.677,558.157 441.602,548.731 444.07,542.28 453.33,530.598 461.954,520.098 469.957,508.113 471.259,506.562 471.615,505.63 472.508,504.294 474.354,498.467 480.362,482.752 486.101,473.043 497.579,460.923 512.493,442.348 521.469,430.665 532.344,413.887 538.72,404.742 544.291,394.077 554.994,373.64 558.895,364.318 567.125,349.504 573.59,336.905 573.706,325.799 573.665,317.314 568.759,307.603 562.95,301.052 562.93,297.685 562.583,295.019 558.198,287.428 555.554,284.807 549.507,280.958 535.955,275.484 518.318,265.797 507.829,257.493 498.605,250.775 493.41,247.736 484.095,241.918 475.297,234.989 466.673,227.836 454.367,217.055 441.627,204.671 432.334,192.763 421.705,182.893 415.382,177.154 413.488,175.681 413.269,175.294 408.607,169.886 399.234,156.076 394.476,145.612 393.521,141.719 394.569,142.743 402.971,147.254 409.565,148.029 422.671,144.117 431.674,139.872 438.339,132.419 436.872,125.212 429.91,118.265 421.354,114.457 418.002,113.135 407.356,110.423 401.304,111.206 398.225,111.67 395.546,109.101 396.026,107.846 399.091,106.388 402.769,105.616 410.154,103.773 412.105,101.737 414.667,98.7615 417.7,95.2904 417.669,92.0542 415.735,88.7872 414.951,85.3722 411.869,82.5897 408.085,79.2542 395.55,69.3344 398.5,85.8724 400.606,88.9006 398.008,88.5506 394.367,87.3611 387.267,82.7043 384.47,81.5812 382.403,80.5927 380.455,79.0305 376.484,76.9065 369.431,73.155 368.676,72.6062 368.207,72.059 364.734,69.6531 364.118,69.592 358.695,64.8947 353.942,59.7355 347.339,53.0897 343.774,48.7812 340.189,45.0627 336.287,39.5637 333.751,37.3538 331.868,35.6241 328.12,30.278 325.894,33.6044 324.551,37.2479 323.583,39.7171 324.377,42.7977 325.361,46.6491 328.043,49.5126 330.189,53.094 331.811,57.8907 334.702,63.0694 339.736,69.874 341.175,72.7348 339.403,72.1789 333.957,71.104 331.118,66.3845 329.649,63.5064 326.196,59.958 325.737,59.0748 321.824,55.6587 316.672,55.5896 314.138,56.2837 310.106,59.7138 305.391,66.7248 303.975,75.3665 302.944,86.2721 306.993,91.0278 306.958,91.1288 306.593,92.6332 304.526,95.3579 302.174,96.1136 298.565,96.5857 295.298,96.7315 291.176,96.0347 288.712,95.7047 286.757,96.045 283.17,97.3538 281.373,98.4596 278.517,101.576 278.791,102.155 277.732,103.002 273.941,106.18 273.407,106.894 273.162,107.788 272.151,109.874 271.721,111.095 271.328,115.011 273.297,118.48 273.905,119.731 273.109,121.971 275.183,128.554 276.474,129.912 280.724,133.939 282.59,135.118 283.678,136.194 285.076,140.116 285.807,143.443 289.624,150.887 300.411,163.247 303.67,171.063 305.558,181.284 303.87,189.31 302.717,200.465 301.821,204.697 299.107,206.872 295.336,209.564 294.391,210.652 294.378,210.672 283.813,222.891 279.313,235.367 274.817,243.492 273.41,256.943 270.489,266.351 270.154,270.85 263.872,278.887 260.777,286.576 257.575,297.095 257.573,297.103 253.162,310.293 250.648,320.119 247.235,327.51 236.628,344.322 231.766,355.553 228.224,365.455 228.002,365.889 218.454,377.606 209.162,383.561 202.12,389.465 195.304,391.912 192.388,391.801 188.547,394.395 179.586,396.868 174.05,399.046 171.479,399.374 168.509,401.227" class="outline_and_mask" />
<g id="face">
<g class="crease">
<path fill="none" d=" M290.768 108.218 L294.272 114.567 L296.56 115.53 L297.283 112.446 M292.081 126.659 L292.247 130.355 L294.919 133.106 L298.331 135.815 L297.932 138.383 M296.56 115.53 L298.034 114.464 L301.331 113.963 L307.843 112.239" />
</g>
<g class="silhouette">
<path fill="none" d=" M303.543 140.413 C300.265 139.228 296.583 138.37 294.065 136.177 M294.065 136.177 C292.79 135.067 291.995 133.6 290.96 132.311 M271.474 114.723 C272.431 114.429 273.338 113.944 274.345 113.84 M274.345 113.84 C275.681 113.703 277.081 113.691 278.376 114.012 M278.376 114.012 C279.95 114.402 281.306 115.288 282.771 115.926 M271.328 115.011 L271.474 114.723 L273.297 118.48 M273.109 121.971 L275.041 121.618 L280.553 123.768 L284.212 126.93 L290.96 132.311 M273.407 106.894 L276.424 105.479 L281.426 102.807 L278.517 101.576 M273.941 106.18 L274.901 106.193 M278.791 102.155 L279.569 103.799 M282.771 115.926 L285.082 117.896 L287.669 121.557 L292.081 126.659 L298.093 130.513 L301.881 133.164 L304.353 135.963 L304.522 137.793 L303.543 140.413 M307.283 116.404 L307.843 112.239 L304.132 111.641 L297.283 112.446 L290.768 108.218 L292.709 114.911 L295.532 119.708 L300.503 121.565 L305.847 119.287 L307.283 116.404 M314.744 81.0794 L315.714 77.9766 L315.219 76.3788 L311.972 78.8517 L312.295 78.9835 L311.119 80.1487 L310.202 80.9071 L310.296 84.5549 M311.282 83.7182 L313.728 82.6799 M311.972 78.8517 L311.99 79.2855 M368.517 113.05 L369.224 109.298 L366.196 105.906 L362.145 104.871 L356.685 106.965 L357.95 110.75 L360.965 113.92 L364.913 114.734 L368.517 113.05 M366.672 111.362 L365.834 110.05 L363.843 108.841 L362.125 109.692 L362.912 111.438 L364.32 111.798 L366.672 111.362" />
</g>
</g>
<g id="hide">
<g class="crease">
<path fill="none" d=" M405.401 140.402 C410.547 140.35 415.933 140.933 420.806 139.477 M420.806 139.477 C423.355 138.716 425.532 137.21 427.896 136.076 M213.25 404.522 L219.233 408.092 M289.755 449.632 L292.772 451.047 M291.176 96.0347 L297.289 99.03 L302.553 102.625 L305.707 105.549 L307.843 112.239 L310.667 113.155 L312.073 112.122 L310.032 106.572 L314.829 107.1 L324.262 105.63 L334.706 100.17 L337.635 92.6132 L331.494 89.6212 L327.191 86.5638 L317.359 90.122 M292.081 126.659 L294.147 123.049 L295.532 119.708 M297.932 138.383 L294.046 140.115 L295.973 143.418 L300.439 146.48 L299.769 143.07 L306.375 140.408 L307.829 138.193 L307.001 134.122 M295.298 96.7315 L301.278 98.8582 L306.168 103.028 L302.553 102.625 M303.876 130.927 L301.195 128.168 L299.955 125.978 L300.503 121.565 M305.391 66.7248 L308.925 67.1656 L308.081 74.1846 L309.131 79.7522 L310.223 81.7471 M307.956 90.8366 L308.322 89.8178 L310.306 87.8478 L310.719 85.349 L313.2 84.8661 M310.385 93.4759 L310.736 93.1912 L311.562 89.2096 L312.612 87.3012 M326.196 59.958 L331.007 66.1997 M337.067 522.617 L343.476 526.571 M373.234 102.11 L375.499 101.459 L377.525 97.6477 L382.712 97.7152 L381.584 107.223 L378.336 107.906 L374.546 110.716 L373.756 110.554 M380.106 122.265 L391.484 122.114 L392.198 127.367 L383.65 132.073 L378.574 126.988 L379.795 122.975 M382.196 117.502 L388.621 117.143 L394.555 113.633 L397.332 111.804 M392.198 127.367 L393.486 124.491 L399.01 136.16 L405.401 140.402 M425.991 575.055 L429.437 576.74 M427.896 136.076 L431.675 139.872" />
</g>
<g class="silhouette">
<path fill="none" d=" M447.42 480.344 C453.501 473.478 460.695 466.828 463.787 458.562 M463.787 458.562 C465.383 454.296 465.574 449.698 465.887 445.215 M465.887 445.215 C466.278 439.62 465.892 434.004 465.895 428.398 M416.134 557.986 C418.762 560.571 421.523 563.079 423.788 565.916 M423.788 565.916 C424.841 567.236 425.69 568.672 426.641 570.05 M428.341 434.659 C437.873 435.052 447.88 435.788 456.915 433.085 M456.915 433.085 C461.179 431.81 464.862 429.315 468.534 427.02 M468.534 427.02 C473.242 424.08 477.502 420.623 481.986 417.423 M350.803 72.6662 C352.422 71.8721 353.946 70.9036 355.662 70.2834 M355.662 70.2834 C357.154 69.7444 358.741 69.3484 360.347 69.2166 M360.347 69.2166 C361.607 69.114 362.861 69.4672 364.118 69.592 M340.903 389.686 C343.677 387.077 346.334 384.368 349.226 381.858 M349.226 381.858 C352.285 379.204 355.765 376.933 358.742 374.206 M358.742 374.206 C361.334 371.831 363.487 369.112 365.893 366.589 M365.893 366.589 C368.211 364.157 370.575 361.759 372.916 359.344 M308.501 87.6933 C308.819 86.8858 308.943 85.9988 309.453 85.2706 M309.453 85.2706 C310.359 83.9753 312.169 83.3417 313.728 82.6799 M280.518 433.242 C283.031 435.717 285.684 438.113 287.817 440.85 M287.817 440.85 C288.794 442.106 289.571 443.473 290.449 444.785 M303.543 140.413 C300.265 139.228 296.583 138.37 294.065 136.177 M294.065 136.177 C292.79 135.067 291.995 133.6 290.96 132.311 M271.474 114.723 C272.431 114.429 273.338 113.944 274.345 113.84 M274.345 113.84 C275.681 113.703 277.081 113.691 278.376 114.012 M278.376 114.012 C279.95 114.402 281.306 115.288 282.771 115.926 M266.101 295.751 C264.382 299.547 262.189 303.332 261.771 307.4 M261.771 307.4 C261.579 309.265 262.287 311.117 262.559 312.974 M262.559 312.974 C262.914 315.39 263.287 317.804 263.651 320.219 M202.12 389.465 L206.394 390.307 L210.137 393.447 L214.246 397.811 L213.25 404.522 M228.224 365.455 L234.892 352.412 M255.354 306.587 L257.573 297.103 M263.651 320.219 L267.396 323.649 L269.912 325.816 L284.57 336.209 L290.284 339.076 M266.064 295.831 L266.665 291.756 L268.097 286.866 L270.694 279.687 L275.182 270.813 M266.101 295.751 L271.705 287.952 M268.683 344.765 L271.179 341.688 M269.832 275.18 L270.154 270.85 M271.328 115.011 L271.474 114.723 M272.427 110.469 L273.162 107.788 M273.109 121.971 L275.041 121.618 L280.553 123.768 L284.212 126.93 L290.96 132.311 M273.407 106.894 L276.424 105.479 L281.426 102.807 L278.517 101.576 M278.082 336.78 L279.12 337.36 M278.256 432.903 L280.518 433.242 M282.59 135.118 L282.887 135.305 M282.771 115.926 L285.082 117.896 L287.669 121.557 L292.081 126.659 L298.093 130.513 L301.881 133.164 L304.353 135.963 L304.522 137.793 L303.543 140.413 M283.678 136.194 L283.933 136.445 L284.625 137.32 M284.065 269.835 L284.934 264.423 L286.421 260.037 L293.026 240.191 L297.298 226.052 L301.821 204.697 M285.076 140.116 L285.118 140.232 M286.537 137.863 L291.931 140.544 L297.454 145.385 M288.499 219.665 L294.378 210.672 M290.417 420.309 L292.579 416.611 M290.449 444.785 L290.723 446.362 M307.283 116.404 L307.843 112.239 L304.132 111.641 L297.283 112.446 L290.768 108.218 L292.709 114.911 L295.532 119.708 L300.503 121.565 L305.847 119.287 L307.283 116.404 M293.856 233.292 L297.405 225.546 M294.391 210.652 L299.107 206.872 M301.974 207.663 L302.717 200.465 M304.526 95.3579 L311.299 93.182 L317.869 90.1074 M304.785 351.675 L315.019 357.382 M304.891 351.934 L307.486 358.304 L307.887 360.265 M305.558 181.284 L306.696 175.872 M306.044 354.766 L306.726 357.404 M306.383 350.425 L321.58 360.838 M306.593 92.6332 L307.956 90.8366 M306.993 91.0278 L307.951 88.2762 L310.719 85.349 M310.935 93.2993 L317.359 90.122 M311.275 376.8 L312.809 378.77 M312.599 379.222 L318.111 367.361 L322.565 358.985 M312.612 87.3012 L313.789 82.4293 L316.268 78.9236 L317.386 77.5272 L321.633 73.2258 M314.744 81.0794 L315.714 77.9766 L315.219 76.3788 L316.985 74.896 L320.217 74.66 M320.845 74.0236 L323.218 71.2109 L325.082 70.4785 M324.541 70.6907 L325.124 70.0404 L329.912 70.3051 L333.957 71.104 M325.425 507.098 L329.64 507.887 L333.49 511.123 L337.802 515.671 L337.067 522.617 M329.89 400.817 L340.903 389.686 M330.168 400.536 L331.656 402.069 M331.007 66.1997 L331.118 66.3845 M341.175 72.7348 L354.532 76.9206 M345.657 74.1392 L351.684 74.3261 M347.004 74.1808 L350.803 72.6662 M368.517 113.05 L369.224 109.298 L366.196 105.906 L362.145 104.871 L356.685 106.965 L357.95 110.75 L360.965 113.92 L364.913 114.734 L368.517 113.05 M356.974 71.1904 L358.85 71.1531 L367.505 71.7549 L364.734 69.6531 M361.934 161.714 L364.697 158.236 L373.957 145.521 L377.6 137.184 L383.65 132.073 L393.521 141.719 M365.756 425.47 L381.201 434.354 L388.824 436.619 M366.937 365.512 L372.476 361.416 L379.784 354.404 L394.424 333.729 M367.385 117.534 L371.088 109.155 L371.147 104.57 M367.505 71.7549 L368.676 72.6062 M368.274 118.145 L373.941 110.298 L373.516 104.141 L373.234 102.11 M373.881 485.735 L378.41 482.443 M376.484 76.9065 L381.644 80.2292 L382.403 80.5927 M378.444 126.055 L382.196 117.502 M394.367 87.3611 L390.279 86.5536 L386.296 88.0277 L382.253 90.8831 L382.712 97.7152 L388.816 107.288 L396.026 107.846 M387.827 436.152 L400.065 441.888 L403.688 440.27 M391.641 139.881 L391.88 145.591 M395.011 108.587 L395.546 109.1 M395.916 110.785 L398.069 111.693 M397.332 111.804 L398.225 111.67 M399.234 156.076 L399.877 157.49 M401 441.471 L407.277 439.853 M402.043 441.202 L405.363 442.913 L412.347 444.543 L414.109 438.144 L413.042 433.2 L421.944 434.137 L428.341 434.659 M413.488 175.681 L415.382 179.02 M421.096 550.391 L413.979 557.744 L416.134 557.986 M426.641 570.05 L427.031 571.732 M438.417 557.057 L441.602 548.731 M442.836 512.222 L445.747 499.639 L445.113 485.301 L447.42 480.344 M444.07 542.28 L444.095 542.216 M460.719 519.119 L469.957 508.113 M468.534 427.02 L487.774 413.461 M471.615 505.63 L474.354 498.467 M481.986 417.423 L500.249 402.253 M555.556 370.329 L558.895 364.318 M555.575 293.969 L561.002 298.855 L562.95 301.053 M568.759 307.603 L573.18 319.24 L573.706 325.799" />
</g>
</g>
<g id="hoofs">
<g class="crease">
<path fill="none" d=" M405.278 580.751 C406.89 584.258 408.076 587.98 410.38 591.175 M410.38 591.175 C411.823 593.177 413.782 594.854 415.483 596.692 M293.993 516.292 L295.929 520.236 L308.137 526.105 L312.845 534.399 L317.494 538.485 L322.532 540.72 M390.165 573.617 L397.025 578.793 L405.278 580.751" />
</g>
<g class="silhouette">
<path fill="none" d=" M416.134 557.986 C418.762 560.571 421.523 563.079 423.788 565.916 M423.788 565.916 C424.841 567.236 425.69 568.672 426.641 570.05 M280.518 433.242 C283.031 435.717 285.684 438.113 287.817 440.85 M287.817 440.85 C288.794 442.106 289.571 443.473 290.449 444.785 M174.05 399.046 L182.523 397.967 M195.196 391.951 L195.304 391.912 M202.12 389.465 L206.394 390.307 L210.137 393.447 L214.246 397.811 L213.25 404.522 L212.104 406.622 M265.228 442.65 L268.222 441.311 M277.123 433.686 L278.256 432.903 L280.518 433.242 M289.713 449.774 L290.723 446.362 L290.449 444.785 M297.491 515.937 L305.32 515.14 M325.425 507.098 L329.64 507.887 L333.49 511.123 L337.802 515.671 L337.067 522.617 L335.768 524.94 M402.256 566.269 L403.509 565.759 M413.827 557.839 L413.979 557.744 L416.134 557.986 M425.92 575.283 L427.031 571.732 L426.641 570.05" />
</g>
</g>
<g id="horns">
<g class="crease">
<path fill="none" d=" M411.117 98.3429 C409.821 96.9185 408.286 95.6388 407.229 94.069 M407.229 94.069 C406.31 92.7062 406.132 91.0289 405.255 89.6444 M405.255 89.6444 C404.148 87.898 402.632 86.378 401.321 84.7445 M407.418 80.8244 C408.662 82.385 409.679 84.1071 411.152 85.5056 M411.152 85.5056 C412.408 86.6989 414.299 87.2931 415.517 88.516 M415.517 88.516 C416.519 89.5229 416.952 90.8749 417.669 92.0542 M323.583 39.7171 L324.745 42.0112 L326.971 44.4414 L328.12 30.278 M395.55 69.3344 L407.418 80.8244 M398.5 85.8724 L400.212 85.7233 L401.321 84.7445 M411.117 98.3429 L415.502 95.9067 L417.669 92.0542" />
</g>
<g class="silhouette">
<path fill="none" d=" M327.031 47.8224 L328.043 49.5126 M330.189 53.094 L330.577 53.7416 M347.004 74.1808 L350.803 72.6662 L355.662 70.2834 L360.347 69.2166 M394.367 87.3611 L390.279 86.5536 L386.296 88.0277 L382.253 90.8831 L382.712 97.7152 L388.816 107.288 L396.026 107.846 M396.141 88.2983 L398.008 88.5506 M399.01 90.9938 L401.251 90.2635 M400.606 88.9006 L400.729 89.0773 L401.437 90.6837 L401.881 95.0451 L400.835 98.3591" />
</g>
</g>
<g id="tail">
<g class="crease">
<path fill="none" d=" M441.348 512.256 L443.781 507.01 M443.288 490.048 L445.184 502.072 M443.835 507.131 L443.974 507.311" />
</g>
<g class="silhouette">
<path fill="none" d=" M441.572 496.966 L442.333 493.893 M443.288 490.048 L445.445 492.83 M443.327 506.512 L443.998 507.204" />
</g>
</g>
<g id="udder">
<g class="crease">
<path fill="none" d=" M368.766 435.832 L371.176 436.785 L365.31 445.28 L362.535 450.33 L364.393 453.867 L367.347 456.822 L366.773 457.907 M367.347 456.822 L370.243 451.935 L378.132 446.17 L377.303 447.738 M387.651 457.834 L383.438 454.792 L379.768 451.016 L373.26 464.494 L375.799 467.106 L378.713 469.21 M398.708 473.742 L400.301 472.205 L403.511 467.407 L406.127 457.029 L411.32 460.48 L417.166 463.477 L411.338 471.979 L407.936 476.665 L406.9 479.245 M415.364 490.023 L416.597 489.595 L419.677 484.747 L422.774 475.925 L420.991 476.543 M415.668 467.207 L417.166 463.477" />
</g>
<g class="silhouette">
<path fill="none" d=" M447.42 480.344 C453.501 473.478 460.695 466.828 463.787 458.562 M463.787 458.562 C465.383 454.296 465.574 449.698 465.887 445.215 M465.887 445.215 C466.278 439.62 465.892 434.004 465.895 428.398 M365.405 457.48 L366.773 457.907 L369.655 453.048 L377.303 447.738 L399.51 459.92 L403.13 462.722 M368.723 435.686 L368.766 435.832 M378.051 448.149 L374.648 457.017 L372.17 462.255 L373.505 468.628 L378.713 469.21 L379.038 469.142 L381.687 464.078 L387.911 457.943 M378.445 448.365 L379.768 451.016 M387.651 457.834 L399.834 462.94 M399.51 459.92 L403.208 462.332 M402.043 441.202 L405.363 442.913 L412.347 444.543 L414.109 438.144 L413.042 433.2 L421.944 434.137 M402.834 464.199 L403.825 459.253 M412.347 444.543 L421.34 443.745 M413.241 470.546 L415.668 467.207 M414.423 468.919 L419.018 471.316 M414.72 471.691 L420.991 476.543 L420.948 476.687 M433.431 482.543 L434.197 481.691 L445.113 485.301 L447.42 480.344 M444.039 485.262 L445.124 485.539" />
</g>
</g>
<path d="M441.348 512.256 L443.835 507.131 M443.835 507.131 L443.781 507.01 M443.781 507.01 L443.571 506.763 " class="silhouette" />
</g>
</g>
</g>
</svg>
